<?xml version="1.0" encoding="UTF-8"?>
<svg id="Layer_1" data-name="Layer 1" xmlns="http://www.w3.org/2000/svg" viewBox="0 0 4419.6 1972">
  <defs>
    <style>
      .cls-1 {
        fill: #f7b926;
        fill-rule: evenodd;
      }
    </style>
  </defs>
  <path class="cls-1" d="M2179.2.7c-.4.3-.7,17.4-.7,37.9v37.2l-4.2.6c-2.4.3-9.2,1-15.3,1.6-11.1,1-23,2.1-42.5,4-5.8.6-15.9,1.5-22.5,2.2-6.6.6-14,1.2-16.5,1.2l-4.5.1-4.8-34c-2.7-18.7-5.3-34.4-5.8-35-.6-.6-9,.4-23.2,2.9-12.2,2-32.2,5.4-44.4,7.4-19.6,3.2-22.3,3.9-22.3,5.5,0,1,1.3,8,2.9,15.5,8.4,38.7,11.4,53.3,11,53.5-.7.6-98.4,29.7-99.5,29.7-.6,0-6.7-14.2-13.5-31.6s-12.9-31.9-13.6-32.1c-.9-.4-84,28-85,29.1-.1.1,6.5,15.9,14.8,35.1,8.2,19.2,14.6,35.2,14.2,35.6-.9.8-71,33.8-73.3,34.5-1.1.3-6.9-8.2-20-29.2-10.2-16.3-18.8-29.8-19.2-30-.9-.6-77.8,46.6-77.8,47.7,0,.4,8.6,12.7,19,27.4,10.5,14.6,19.3,27.1,19.5,27.8.2.6-16,15.1-36.1,32-32.8,27.7-36.7,30.7-38.2,29.5-.9-.8-12.8-10.5-26.4-21.6-31.1-25.5-27.2-24.8-47.4-8.7-4.8,3.8-12,9.6-15.9,12.7-9,7.1-19.9,18.6-22.4,23.6-5.5,10.9-3.2,17.1,12.3,31.9,5.6,5.5,15.3,13.7,21.4,18.3,6.2,4.6,11.2,8.7,11.2,9.2,0,.9-64.3,74.8-66.3,76.2-.9.5-11.1-5.5-31.1-18.3-16.3-10.5-30.1-18.9-30.6-18.6-.8.5-16.6,22.6-41.9,58.4-5.6,8-10,14.9-9.8,15.5s10.2,6.8,22.3,13.8c12,7,26.3,15.3,31.7,18.4,5.3,3.1,9.7,6,9.7,6.4s-3.2,6.5-7,13.6c-3.9,7.1-13.9,25.4-22.3,40.6-8.3,15.3-15.6,27.8-16.2,27.8-.5,0-17.4-5.5-37.3-12.1-23.2-7.7-36.7-11.8-37.3-11.2-1.2,1.2-29.9,76.9-29.9,78.8,0,.7,4.2,2.9,9.3,4.9,38.9,15.2,59.2,23.6,59.5,24.8.2,1.2-23.3,70.6-24.3,71.6-.3.3-17.4-2.9-38-7l-37.5-7.5v20.7h237.7l4.7-14.3c18.4-54.8,46.9-114.2,78.7-163.9,91.5-143.1,229.6-253.4,394.4-314.8,138.1-51.5,288.9-66.2,434.5-42.4,216.5,35.4,413.8,157.8,535.9,332.4,40.5,58,69.6,115.7,92.1,182.5l6.7,20,121.1.3c73.1.1,121.2-.2,121.2-.7,0-2-7.2-19.6-8.3-20.4-2.3-1.6-16.4.3-34.2,4.6-9.9,2.5-20.7,4.8-24.1,5.2-6.4.7-13.4-.6-15.2-2.8-1-1.2-28.2-84.4-28.2-86.3,0-.5,10.7-4.7,23.8-9.3,13-4.6,27.7-10.1,32.6-12.2,4.9-2.2,9.8-3.9,10.8-3.9,5.6,0,3.4-7.1-11.7-37.8-12.5-25.5-21.7-42-23.9-42.8-.6-.2-17,5-36.5,11.6-19.4,6.6-35.4,12-35.6,12s-24.3-52.7-28.6-62.8l-1.9-4.3,2.8-2.6c3.6-3.4,9.7-7.2,27.6-17.3,15.8-9,24.6-15.8,24.6-19.2,0-3.8-19.8-36.8-30.7-51-8-10.5-12.3-14.8-16.8-16.9l-4-1.8-10,5.4c-5.5,2.9-19.7,10.5-31.5,16.9s-21.9,11.6-22.5,11.5c-.5,0-3.8-3.5-7.1-7.7-3.4-4.2-11.5-14.2-17.9-22.2-12.8-15.6-28.3-34.8-29.7-36.7-.6-.8,6.7-9.5,23.4-27.8,13.4-14.7,24.4-27,24.6-27.4.1-.4-3.5-4.5-8-9.2-4.6-4.7-14.7-15.3-22.6-23.6-14.5-15.5-23.2-22.4-30.4-24.3-7.2-2-9.7-.3-27.7,18.1-17.2,17.7-24.5,23.6-30.2,24.5-3.2.5-5.4-1-39.4-27.2-35.4-27.1-36-27.7-36.3-31.4-.4-5.5,3.1-11.9,15.8-28.6,15.2-20,19.8-28.6,18.5-34.5-.6-2.7.2-2.2-48.5-29.7-10.2-5.7-20-11.3-21.8-12.5l-3.4-2-5.1,5.5c-2.9,3-8.7,11.4-13,18.6-10.5,17.4-15.9,23.9-22.7,27.5-7.9,4.1-10.9,3.4-31.9-7.1-33.4-16.8-56-30.4-55.3-33.3.2-.8,5.7-16,12.3-33.8,6.5-17.9,11.7-32.6,11.5-32.8-.4-.5-76.5-28-80.8-29.3l-2.6-.8-13.7,31.6c-7.6,17.5-14,32-14.4,32.5-.7.7-77.9-17.9-79.3-19.2-.4-.3.6-6.9,2.3-14.6s5.1-23.2,7.5-34.4c2.5-11.2,4.1-20.7,3.7-21.1s-3.7-1.2-7.3-1.8c-46.5-7.7-82.2-13.4-82.5-13-.3.3-3.9,15.5-8,33.8s-7.7,33.5-7.9,33.8c-.3.2-5.8-.1-12.3-.7-11.4-1-22.5-1.9-51.8-4.1-7.7-.6-18.4-1.5-23.8-2.1-5.4-.5-10.4-.9-11.2-.9-1.3,0-1.5-5.3-1.5-38V0h-45.3c-25,0-45.7.3-46,.7Z"/>
  <path class="cls-1" d="M2139.7,673.3l-3.2,3.3v76.1l31.8.7c17.4.3,111.8,1.6,209.7,2.7,97.9,1.2,178.2,2.3,178.4,2.5.7.7,2.4,205.4,1.7,206.2-.4.3-93.4,1.8-206.7,3.3-113.2,1.4-206.1,2.8-206.3,3s76.8,68,171.1,150.6l171.4,150.3h108.4l-2.5-2.4c-1.4-1.4-54.7-48.2-118.5-104.1-63.8-55.8-116.4-102.2-117-103-.7-1-.2-2.2,2-4.5l2.9-3h207.4l37.8-45,37.9-45,.2-29.3c.1-16,.7-42.9,1.3-59.7,1.3-38.5,1.3-66.9,0-88-1.8-28.2-3.1-32.4-13-41.2-3.3-2.9-10.8-10.7-16.7-17.3s-20.4-22.7-32.1-35.8l-21.4-23.7h-421.4l-3.2,3.3Z"/>
  <path class="cls-1" d="M1730,761.7c-.4,38.4-.5,146.7-.2,240.8l.6,171,2.4,9.5c3.9,15.2,13.9,36.2,22.8,48.2,8.3,11.2,24.3,21.7,42.8,27.9,10.3,3.5,28.8,7.2,48,9.5,13.6,1.7,23.7,1.7,206.5.1,105.6-.9,206.6-2,224.4-2.3l32.2-.7v-38.9l-18.7.7c-10.4.3-62.7,1-116.3,1.5s-116.6,1.7-140,2.6-64.8,1.6-92,1.7c-68.9.1-94-1.8-114.2-8.7-11.6-3.9-19.1-8.2-26.9-15.4-10.5-9.7-16.5-21.6-19.4-38.7-2.8-16.6-3.9-97.5-4-293.3v-185.2h-47.3l-.7,69.7Z"/>
  <path class="cls-1" d="M1825.5,755.7v63.8l2.4,5c2.7,5.9,9.9,12.8,16.4,15.8l4.7,2.2,230.3.3,230.2.2v-20c0-15.6-.3-20.2-1.3-20.6-.7-.2-92,.4-202.8,1.5-123.8,1.1-203.9,1.5-207.9,1-8.2-1.1-18.2-6-21.2-10.2l-2.3-3.2-.3-49.8-.3-49.7h-47.9v63.7Z"/>
  <path class="cls-1" d="M2.8,811.4q-2.8,2.4-2.8,15.3v12.8h1269l.3-15.3.3-15.2H5.6l-2.8,2.4Z"/>
  <path class="cls-1" d="M3144.7,824.2l.3,15.3h1274l.3-15.3.3-15.2h-1275.2l.3,15.2Z"/>
  <path class="cls-1" d="M252.5,892.5v12.5h1017v-25H252.5v12.5Z"/>
  <path class="cls-1" d="M1962.5,881.5c-106,1.2-106.5,1.2-112.2,3.4-10.3,4-18.6,12.6-22.7,23.6-1.8,4.8-1.9,7.1-1.4,28.6.3,14-.1,46.6-1.2,81.4-2.4,79-1.4,125.4,3.1,145.3,2.7,12,9.2,20.9,18.1,24.8,7.3,3.2,48.9,3.8,182.3,2.5,146.5-1.3,268.4-3,275.8-3.7l5.2-.5v-36.7l-11.5-.7c-11.8-.8-72.2.4-159.5,3-118.5,3.6-175.8,4.2-224.5,2.6-29.5-1-32.4-2.2-37-15.8-3.9-11.7-6.1-37.9-7.1-86.8-.6-28.3.6-73.5,2.6-97.2,1.5-17.4,5.7-26,14.7-30.4,4.7-2.3,4.8-2.3,56.2-2.5,85.7-.5,358.4-3.4,360.8-3.9,4.3-1,5.8-5.8,5.7-18.5-.2-14.1-1-17.1-5-18.4-4.4-1.4-219-1.5-342.4-.1Z"/>
  <path class="cls-1" d="M3144.5,892.5v12.5h1022v-25h-1022v12.5Z"/>
  <path class="cls-1" d="M379,947.2c-.3,1.3-.5,7-.3,12.8l.3,10.5,445.3.3,445.3.2-.3-12.7-.3-12.8-444.7-.3-444.8-.2-.5,2.2Z"/>
  <path class="cls-1" d="M3145.2,945.7c-.4.3-.7,6.2-.7,13v12.3l447.8-.2,447.7-.3.3-10.5c.2-5.8,0-11.5-.3-12.8l-.5-2.2h-446.9c-245.7,0-447.1.3-447.4.7Z"/>
  <path class="cls-1" d="M506.2,1011.7c-.4.3-.7,7.3-.7,15.5v14.8h764v-31h-381.3c-209.8,0-381.7.3-382,.7Z"/>
  <path class="cls-1" d="M3144.5,1026.5v15.5h769.1l-.3-15.3-.3-15.2-384.2-.3-384.3-.2v15.5Z"/>
  <path class="cls-1" d="M632,1081.2c-.3,2.4-.5,9.2-.3,15.3l.3,11h637l.3-15.3.3-15.2h-637l-.6,4.2Z"/>
  <path class="cls-1" d="M3144.7,1092.2l.3,15.3h642l.3-15.3.3-15.2h-643.2l.3,15.2Z"/>
  <path class="cls-1" d="M1208.5,1194.7c.1,3,4.7,33.3,5.1,33.8.3.2,7.6-1.1,16.4-3,52.9-11,52-10.9,57-9,4.5,1.8,4.6,1.9,7,9.9,16.7,53.8,25.1,82.2,24.6,82.8-.3.4-14.7,5.7-32,11.7-17.3,6.1-31.8,11.4-32.2,11.8-1.1,1.2,29.2,82.3,30.7,82.3.8,0,17.3-6.4,36.6-14.1,19.4-7.8,36-14.4,36.8-14.6,1.2-.3,3.7,3.8,9.7,15.4,4.5,8.7,12,23.2,16.8,32.3,4.7,9.1,8.8,17.5,9.1,18.7.5,1.7-.5,2.8-5.3,6-3.2,2.2-8.9,5.7-12.8,7.8-21.9,11.9-32.8,19.5-37,25.5-5.6,8.1-3,13.7,20.6,43.1,7.2,9,15.3,19.8,18.1,23.9,2.7,4.1,5.1,7.6,5.3,7.8s13.2-8.1,29.1-18.4c15.8-10.3,29.5-18.9,30.4-19.1,1.2-.3,11.3,9.7,34.5,34.3,18,19.1,33,35.5,33.3,36.3.4,1-7.4,9.2-24.3,25.6-22.1,21.5-24.7,24.4-24.2,26.6,1,4,15.8,21.1,35.6,41.2,18.1,18.2,18.7,18.7,22.7,18.7,6,0,12.2-4.5,24.9-17.8,6.1-6.4,14.7-15.4,19.1-20.1l8.1-8.4,27.9,19.3c15.4,10.7,33.5,23.3,40.4,28.1,10.3,7.1,12.6,9.1,12.8,11.4.6,4.4-4.9,14.1-15.8,28.1-16.4,21.1-19.8,27.2-18.6,33.6.5,3,2.1,4.2,17.8,13.9,42.7,26.3,48.8,29.9,50.8,29.9,7.8,0,19.1-13.3,36.6-43.3,3.7-6.4,7.3-11.7,7.8-11.7.9,0,21,9.3,51.6,23.8,6.3,3,16.9,7.9,23.5,10.9s12.1,5.6,12.3,5.8c.1.1-5.2,15.6-11.9,34.4-6.6,18.8-11.9,34.7-11.6,35.4.4,1.1,78.8,29.7,81.3,29.7.6,0,7.4-14.3,14.9-31.8,7.6-17.4,14-31.9,14.1-32.1.5-.5,78.7,19,79.7,19.9.7.7-4.8,29.7-11.3,59.8-1.3,6.1-1.5,8.4-.7,8.7,3.7,1.3,86,21.5,87.5,21.5,1.6,0,2.4-2.2,5.1-14.3,1.8-7.8,5.3-23.4,7.8-34.6l4.7-20.4,12,.7c6.7.3,20.2,1.1,30.1,1.6,9.9.6,25.3,1.4,34.2,1.9,11.3.6,16.8,1.3,18,2.2.9.8,2.6,3.4,3.7,5.9,2,4.3,2.1,5.9,1.9,36.2l-.3,31.8h92v-70.8l6.8-.7c3.7-.3,11.2-1,16.7-1.5l22-2c19.9-1.8,31.4-2.8,44.6-4.1,6.9-.7,13.3-1,14-.7,1,.4,3.9,11.5,8.9,34.3,4.1,18.5,7.7,34,8,34.5.3.4,11.8-1.9,25.5-5.1,32.8-7.7,57.8-13.8,58.1-14.2.2-.2-.1-4.5-.7-9.7-4.4-40.4-6.2-60-5.7-60.6.6-.6,91.1-25.5,91.4-25.1.1.1,6.7,13.6,14.7,29.9l14.5,29.8h3.7c8.2,0,33.1-8.1,55.4-17.9,11.3-5,24.5-12.2,25.6-14.1.3-.5-4.8-15.8-11.5-34-6.6-18.1-12-33.4-12-33.9,0-.4,4.8-3,10.8-5.6,5.9-2.7,20.5-9.2,32.6-14.7,12-5.4,22.2-9.8,22.6-9.8.5,0,7.9,10,16.7,22.1,23.4,32.9,22.6,31.9,27.2,31.9,4,0,14.6-5.5,37.6-19.3,22.6-13.6,36.5-24.8,36.5-29.5,0-1.2-8.2-13.6-18.6-28.3-15.7-21.9-18.4-26.3-17.3-27.4,1.5-1.3,41.3-33.7,63.1-51.3l12.8-10.3,26.9,24.6c14.8,13.5,27.4,24.5,27.9,24.5,1.2,0,63.3-53.6,64.5-55.7,2.4-4.1-4.5-12.5-20.9-25.4-22.2-17.4-29.4-24.5-29.4-28.9,0-1.3,51.7-59.7,64.5-72.9l2.3-2.3,6.8,4.5c3.8,2.5,12.7,8.8,19.9,14.1,15.7,11.6,24.4,16,29.4,15.2,7.5-1.2,15.9-11.1,32.1-37.7,5.7-9.4,12.5-20,15.2-23.6s4.6-6.9,4.1-7.3c-.4-.4-13.6-9.4-29.3-19.9-15.7-10.6-28.6-19.6-28.8-20.1-.4-1,39.3-80.6,40.5-81.3.4-.2,15.7,3.6,33.8,8.4,18.2,4.9,34.2,9.1,35.6,9.4,2.5.6,2.8,0,18.7-38.2,8.9-21.3,16.2-39.4,16.4-40.2.2-1.1-8.1-4.2-31.5-11.7-17.5-5.6-32-10.4-32.3-10.6-.4-.5,18.2-70.8,19-71.5.2-.2,16.5,1.2,36.1,3.2,19.7,2,36.1,3.3,36.5,2.8.9-.9,8-26.6,8-28.8,0-1.3-15.1-1.5-118.7-1.3l-118.6.3-5.7,17.5c-69.7,213.4-229.5,384.4-443.5,474.5-85.4,36-172.4,56.7-271,64.7-21.4,1.7-96.8,1.7-118,0-64.4-5.2-118.3-14.7-173.9-30.7-157.4-45-298.9-136.8-402.1-261-40-48-78-107.7-103.2-161.7-14.2-30.6-28.3-66.6-36.3-93.1l-3.3-10.7h-118.9c-112.5,0-118.8.1-118.8,1.7Z"/>
</svg>