<svg xmlns="http://www.w3.org/2000/svg" viewBox="0 715 4500 2052" fill="#000" fill-rule="evenodd">
<g transform="translate(0.000000,4500.000000) scale(0.100000,-0.100000)"
fill="#000000" stroke="none">
<path d="M22197 37443 c-4 -3 -7 -174 -7 -379 l0 -372 -42 -6 c-24 -3 -92 -10
-153 -16 -111 -10 -230 -21 -425 -40 -58 -6 -159 -15 -225 -22 -66 -6 -140
-12 -165 -12 l-45 -1 -48 340 c-27 187 -53 344 -58 350 -6 6 -90 -4 -232 -29
-122 -20 -322 -54 -444 -74 -196 -32 -223 -39 -223 -55 0 -10 13 -80 29 -155
84 -387 114 -533 110 -535 -7 -6 -984 -297 -995 -297 -6 0 -67 142 -135 316
-68 174 -129 319 -136 321 -9 4 -840 -280 -850 -291 -1 -1 65 -159 148 -351
82 -192 146 -352 142 -356 -9 -8 -710 -338 -733 -345 -11 -3 -69 82 -200 292
-102 163 -188 298 -192 300 -9 6 -778 -466 -778 -477 0 -4 86 -127 190 -274
105 -146 193 -271 195 -278 2 -6 -160 -151 -361 -320 -328 -277 -367 -307
-382 -295 -9 8 -128 105 -264 216 -311 255 -272 248 -474 87 -48 -38 -120 -96
-159 -127 -90 -71 -199 -186 -224 -236 -55 -109 -32 -171 123 -319 56 -55 153
-137 214 -183 62 -46 112 -87 112 -92 0 -9 -643 -748 -663 -762 -9 -5 -111 55
-311 183 -163 105 -301 189 -306 186 -8 -5 -166 -226 -419 -584 -56 -80 -100
-149 -98 -155 2 -6 102 -68 223 -138 120 -70 263 -153 317 -184 53 -31 97 -60
97 -64 0 -4 -32 -65 -70 -136 -39 -71 -139 -254 -223 -406 -83 -153 -156 -278
-162 -278 -5 0 -174 55 -373 121 -232 77 -367 118 -373 112 -12 -12 -299 -769
-299 -788 0 -7 42 -29 93 -49 389 -152 592 -236 595 -248 2 -12 -233 -706
-243 -716 -3 -3 -174 29 -380 70 l-375 75 0 -103 0 -104 1188 0 1189 0 47 143
c184 548 469 1142 787 1639 915 1431 2296 2534 3944 3148 1381 515 2889 662
4345 424 2165 -354 4138 -1578 5359 -3324 405 -580 696 -1157 921 -1825 l67
-200 1211 -3 c731 -1 1212 2 1212 7 0 20 -72 196 -83 204 -23 16 -164 -3 -342
-46 -99 -25 -207 -48 -241 -52 -64 -7 -134 6 -152 28 -10 12 -282 844 -282
863 0 5 107 47 238 93 130 46 277 101 326 122 49 22 98 39 108 39 56 0 34 71
-117 378 -125 255 -217 420 -239 428 -6 2 -170 -50 -365 -116 -194 -66 -354
-120 -356 -120 -2 0 -243 527 -286 628 l-19 43 28 26 c36 34 97 72 276 173
158 90 246 158 246 192 0 38 -198 368 -307 510 -80 105 -123 148 -168 169
l-40 18 -100 -54 c-55 -29 -197 -105 -315 -169 -118 -64 -219 -116 -225 -115
-5 0 -38 35 -71 77 -34 42 -115 142 -179 222 -128 156 -283 348 -297 367 -6 8
67 95 234 278 134 147 244 270 246 274 1 4 -35 45 -80 92 -46 47 -147 153
-226 236 -145 155 -232 224 -304 243 -72 20 -97 3 -277 -181 -172 -177 -245
-236 -302 -245 -32 -5 -54 10 -394 272 -354 271 -360 277 -363 314 -4 55 31
119 158 286 152 200 198 286 185 345 -6 27 2 22 -485 297 -102 57 -200 113
-218 125 l-34 20 -51 -55 c-29 -30 -87 -114 -130 -186 -105 -174 -159 -239
-227 -275 -79 -41 -109 -34 -319 71 -334 168 -560 304 -553 333 2 8 57 160
123 338 65 179 117 326 115 328 -4 5 -765 280 -808 293 l-26 8 -137 -316 c-76
-175 -140 -320 -144 -325 -7 -7 -779 179 -793 192 -4 3 6 69 23 146 17 77 51
232 75 344 25 112 41 207 37 211 -4 4 -37 12 -73 18 -465 77 -822 134 -825
130 -3 -3 -39 -155 -80 -338 -41 -183 -77 -335 -79 -338 -3 -2 -58 1 -123 7
-114 10 -225 19 -518 41 -77 6 -184 15 -238 21 -54 5 -104 9 -112 9 -13 0 -15
53 -15 380 l0 380 -453 0 c-250 0 -457 -3 -460 -7z"/>
<path d="M21802 30717 l-32 -33 0 -381 0 -380 318 -7 c174 -3 1118 -16 2097
-27 979 -12 1782 -23 1784 -25 7 -7 24 -2054 17 -2062 -4 -3 -934 -18 -2067
-33 -1132 -14 -2061 -28 -2063 -30 -2 -2 768 -680 1711 -1506 l1714 -1503 542
0 542 0 -25 24 c-14 14 -547 482 -1185 1041 -638 558 -1164 1022 -1170 1030
-7 10 -2 22 20 45 l29 30 1037 0 1037 0 378 450 379 450 2 293 c1 160 7 429
13 597 13 385 13 669 0 880 -18 282 -31 324 -130 412 -33 29 -108 107 -167
173 -59 66 -204 227 -321 358 l-214 237 -2107 0 -2107 0 -32 -33z"/>
<path d="M17705 29833 c-4 -384 -5 -1467 -2 -2408 l6 -1710 24 -95 c39 -152
139 -362 228 -482 83 -112 243 -217 428 -279 103 -35 288 -72 480 -95 136 -17
237 -17 2065 -1 1056 9 2066 20 2244 23 l322 7 0 194 0 195 -187 -7 c-104 -3
-627 -10 -1163 -15 -536 -5 -1166 -17 -1400 -26 -234 -9 -648 -16 -920 -17
-689 -1 -940 18 -1142 87 -116 39 -191 82 -269 154 -105 97 -165 216 -194 387
-28 166 -39 975 -40 2933 l0 1852 -236 0 -237 0 -7 -697z"/>
<path d="M18660 29893 l0 -638 24 -50 c27 -59 99 -128 164 -158 l47 -22 2303
-3 2302 -2 0 200 c0 156 -3 202 -13 206 -7 2 -920 -4 -2028 -15 -1238 -11
-2039 -15 -2079 -10 -82 11 -182 60 -212 102 l-23 32 -3 498 -3 497 -239 0
-240 0 0 -637z"/>
<path d="M433 29336 c-28 -24 -28 -24 -28 -153 l0 -128 6345 0 6345 0 3 153 3
152 -6320 0 -6320 0 -28 -24z"/>
<path d="M31852 29208 l3 -153 6370 0 6370 0 3 153 3 152 -6376 0 -6376 0 3
-152z"/>
<path d="M2930 28525 l0 -125 5085 0 5085 0 0 125 0 125 -5085 0 -5085 0 0
-125z"/>
<path d="M20030 28635 c-1060 -12 -1065 -12 -1122 -34 -103 -40 -186 -126
-227 -236 -18 -48 -19 -71 -14 -286 3 -140 -1 -466 -12 -814 -24 -790 -14
-1254 31 -1453 27 -120 92 -209 181 -248 73 -32 489 -38 1823 -25 1465 13
2684 30 2758 37 l52 5 0 184 0 183 -115 7 c-118 8 -722 -4 -1595 -30 -1185
-36 -1758 -42 -2245 -26 -295 10 -324 22 -370 158 -39 117 -61 379 -71 868 -6
283 6 735 26 972 15 174 57 260 147 304 47 23 48 23 562 25 857 5 3584 34
3608 39 43 10 58 58 57 185 -2 141 -10 171 -50 184 -44 14 -2190 15 -3424 1z"/>
<path d="M31850 28525 l0 -125 5110 0 5110 0 0 125 0 125 -5110 0 -5110 0 0
-125z"/>
<path d="M4195 27978 c-3 -13 -5 -70 -3 -128 l3 -105 4453 -3 4453 -2 -3 127
-3 128 -4447 3 -4448 2 -5 -22z"/>
<path d="M31857 27993 c-4 -3 -7 -62 -7 -130 l0 -123 4478 2 4477 3 3 105 c2
58 0 115 -3 128 l-5 22 -4469 0 c-2457 0 -4471 -3 -4474 -7z"/>
<path d="M5467 27333 c-4 -3 -7 -73 -7 -155 l0 -148 3820 0 3820 0 0 155 0
155 -3813 0 c-2098 0 -3817 -3 -3820 -7z"/>
<path d="M31850 27185 l0 -155 3845 0 3846 0 -3 153 -3 152 -3842 3 -3843 2 0
-155z"/>
<path d="M6725 26638 c-3 -24 -5 -92 -3 -153 l3 -110 3185 0 3185 0 3 153 3
152 -3185 0 -3185 0 -6 -42z"/>
<path d="M31852 26528 l3 -153 3210 0 3210 0 3 153 3 152 -3216 0 -3216 0 3
-152z"/>
<path d="M12490 25503 c1 -30 47 -333 51 -338 3 -2 76 11 164 30 529 110 520
109 570 90 45 -18 46 -19 70 -99 167 -538 251 -822 246 -828 -3 -4 -147 -57
-320 -117 -173 -61 -318 -114 -322 -118 -11 -12 292 -823 307 -823 8 0 173 64
366 141 194 78 360 144 368 146 12 3 37 -38 97 -154 45 -87 120 -232 168 -323
47 -91 88 -175 91 -187 5 -17 -5 -28 -53 -60 -32 -22 -89 -57 -128 -78 -219
-119 -328 -195 -370 -255 -56 -81 -30 -137 206 -431 72 -90 153 -198 181 -239
27 -41 51 -76 53 -78 2 -2 132 81 291 184 158 103 295 189 304 191 12 3 113
-97 345 -343 180 -191 330 -355 333 -363 4 -10 -74 -92 -243 -256 -221 -215
-247 -244 -242 -266 10 -40 158 -211 356 -412 181 -182 187 -187 227 -187 60
0 122 45 249 178 61 64 147 154 191 201 l81 84 279 -193 c154 -107 335 -233
404 -281 103 -71 126 -91 128 -114 6 -44 -49 -141 -158 -281 -164 -211 -198
-272 -186 -336 5 -30 21 -42 178 -139 427 -263 488 -299 508 -299 78 0 191
133 366 433 37 64 73 117 78 117 9 0 210 -93 516 -238 63 -30 169 -79 235
-109 66 -30 121 -56 123 -58 1 -1 -52 -156 -119 -344 -66 -188 -119 -347 -116
-354 4 -11 788 -297 813 -297 6 0 74 143 149 318 76 174 140 319 141 321 5 5
787 -190 797 -199 7 -7 -48 -297 -113 -598 -13 -61 -15 -84 -7 -87 37 -13 860
-215 875 -215 16 0 24 22 51 143 18 78 53 234 78 346 l47 204 120 -7 c67 -3
202 -11 301 -16 99 -6 253 -14 342 -19 113 -6 168 -13 180 -22 9 -8 26 -34 37
-59 20 -43 21 -59 19 -362 l-3 -318 460 0 460 0 0 354 0 354 68 7 c37 3 112
10 167 15 55 5 154 14 220 20 199 18 314 28 446 41 69 7 133 10 140 7 10 -4
39 -115 89 -343 41 -185 77 -340 80 -345 3 -4 118 19 255 51 328 77 578 138
581 142 2 2 -1 45 -7 97 -44 404 -62 600 -57 606 6 6 911 255 914 251 1 -1 67
-136 147 -299 l145 -298 37 0 c82 0 331 81 554 179 113 50 245 122 256 141 3
5 -48 158 -115 340 -66 181 -120 334 -120 339 0 4 48 30 108 56 59 27 205 92
326 147 120 54 222 98 226 98 5 0 79 -100 167 -221 234 -329 226 -319 272
-319 40 0 146 55 376 193 226 136 365 248 365 295 0 12 -82 136 -186 283 -157
219 -184 263 -173 274 15 13 413 337 631 513 l128 103 269 -246 c148 -135 274
-245 279 -245 12 0 633 536 645 557 24 41 -45 125 -209 254 -222 174 -294 245
-294 289 0 13 517 597 645 729 l23 23 68 -45 c38 -25 127 -88 199 -141 157
-116 244 -160 294 -152 75 12 159 111 321 377 57 94 125 200 152 236 27 36 46
69 41 73 -4 4 -136 94 -293 199 -157 106 -286 196 -288 201 -4 10 393 806 405
813 4 2 157 -36 338 -84 182 -49 342 -91 356 -94 25 -6 28 0 187 382 89 213
162 394 164 402 2 11 -81 42 -315 117 -175 56 -320 104 -323 106 -4 5 182 708
190 715 2 2 165 -12 361 -32 197 -20 361 -33 365 -28 9 9 80 266 80 288 0 13
-151 15 -1187 13 l-1186 -3 -57 -175 c-697 -2134 -2295 -3844 -4435 -4745
-854 -360 -1724 -567 -2710 -647 -214 -17 -968 -17 -1180 0 -644 52 -1183 147
-1739 307 -1574 450 -2989 1368 -4021 2610 -400 480 -780 1077 -1032 1617
-142 306 -283 666 -363 931 l-33 107 -1189 0 c-1125 0 -1188 -1 -1188 -17z"/>
</g>
</svg>
